<?xml version="1.0" encoding="UTF-8"?>
<svg xmlns="http://www.w3.org/2000/svg" xmlns:xlink="http://www.w3.org/1999/xlink" width="192px" height="192px" viewBox="0 0 192 192" version="1.1">
<g id="surface1">
<path style="fill-rule:evenodd;fill:rgb(29.803923%,78.823531%,94.117647%);fill-opacity:1;stroke-width:1;stroke-linecap:butt;stroke-linejoin:miter;stroke:rgb(29.803923%,78.823531%,94.117647%);stroke-opacity:1;stroke-miterlimit:4;" d="M 7.5 4.5 C 6.671387 4.5 6 5.171387 6 6 L 6 15.401367 C 6.441406 15.145996 6.953613 15 7.5 15 L 18 15 L 18 4.5 Z M 18 16.5 L 7.5 16.5 C 6.671387 16.5 6 17.171387 6 18 C 6 18.828613 6.671387 19.5 7.5 19.5 L 18 19.5 Z M 4.5 18 L 4.5 6 C 4.5 4.343262 5.843262 3 7.5 3 L 18.75 3 L 19.5 3.75 L 19.5 21 L 7.5 21 C 5.843262 21 4.5 19.656738 4.5 18 Z M 4.5 18 " transform="matrix(8,0,0,8,0,0)"/>
</g>
</svg>
