<?xml version="1.0" encoding="UTF-8"?>
<svg xmlns="http://www.w3.org/2000/svg" xmlns:xlink="http://www.w3.org/1999/xlink" width="72px" height="72px" viewBox="0 0 72 72" version="1.1">
<g id="surface1">
<path style="fill-rule:evenodd;fill:rgb(29.803923%,78.823531%,94.117647%);fill-opacity:1;stroke-width:1;stroke-linecap:butt;stroke-linejoin:miter;stroke:rgb(29.803923%,78.823531%,94.117647%);stroke-opacity:1;stroke-miterlimit:4;" d="M 7.5 4.5 C 6.671875 4.5 6 5.171875 6 6 L 6 15.401042 C 6.441406 15.145833 6.953125 15 7.5 15 L 18 15 L 18 4.5 Z M 18 16.5 L 7.5 16.5 C 6.671875 16.5 6 17.171875 6 18 C 6 18.828125 6.671875 19.5 7.5 19.5 L 18 19.5 Z M 4.5 18 L 4.5 6 C 4.5 4.34375 5.84375 3 7.5 3 L 18.75 3 L 19.5 3.75 L 19.5 21 L 7.5 21 C 5.84375 21 4.5 19.65625 4.5 18 Z M 4.5 18 " transform="matrix(3,0,0,3,0,0)"/>
</g>
</svg>
